<svg xmlns="http://www.w3.org/2000/svg" viewBox="0 0 547.81 552"><defs><style>.cls-1{fill:#2b2b2b;}</style></defs><title>logo</title><path class="cls-1" d="M400.19,481.51a125.49,125.49,0,0,1-52.05-10.83,129.27,129.27,0,0,1-42-30.1,141.53,141.53,0,0,1-28-44.57,144.38,144.38,0,0,1-10.06-53.87q0-30.09,10.73-55.4a138.27,138.27,0,0,1,29.33-44,135.47,135.47,0,0,1,42.46-29,125.79,125.79,0,0,1,107.25,3.45q27.42,13.8,47.74,41.41L470,277.93a92.11,92.11,0,0,0-32.11-26.07A85.45,85.45,0,0,0,400.38,243a84.34,84.34,0,0,0-35.28,7.57,94.14,94.14,0,0,0-29.52,21.09,100.39,100.39,0,0,0-20.22,31.63,107.82,107.82,0,0,0-.19,77.92,98.74,98.74,0,0,0,19.93,31.53A93.85,93.85,0,0,0,364.63,434a85.42,85.42,0,0,0,35.94,7.66,81.14,81.14,0,0,0,27.22-4.6A88.29,88.29,0,0,0,452,423.9a93.47,93.47,0,0,0,19.65-20.41A103,103,0,0,0,485.1,377H428.17V341.76H531.88A137.8,137.8,0,0,1,522,395.82a142.83,142.83,0,0,1-28.37,44.57,133.19,133.19,0,0,1-42.08,30.19A122.44,122.44,0,0,1,400.19,481.51Z" transform="translate(-126.09 -127.93)"/><path class="cls-1" d="M267,550.05a94.24,94.24,0,0,1-49.25-13.25,100,100,0,0,1-35.29-35.43,94.47,94.47,0,0,1-13.11-49V384.05a16.91,16.91,0,0,0-7-13.67,78.77,78.77,0,0,0-15.06-8.79,71.37,71.37,0,0,1-14.79-8.79,16.42,16.42,0,0,1-6.42-13.67q0-8.92,6.42-14.09a68,68,0,0,1,14.79-8.93,83.39,83.39,0,0,0,15.06-8.65,16.26,16.26,0,0,0,7-13.25V225.58a94.47,94.47,0,0,1,13.11-49,99.83,99.83,0,0,1,35.29-35.43A94.24,94.24,0,0,1,267,127.93h23.16V174.8H267a48.61,48.61,0,0,0-25.39,6.83,52.8,52.8,0,0,0-18.41,18.42,48.46,48.46,0,0,0-7,25.53v70.3q-.57,10.33-4.88,16.88A55.47,55.47,0,0,1,200,325q-7,5.71-15.63,14.09,8.92,8.92,15.77,14.65a65.89,65.89,0,0,1,11.16,11.71q4.32,6,4.88,16.88v70a49.22,49.22,0,0,0,6.84,25.53,51.68,51.68,0,0,0,18.27,18.42A49,49,0,0,0,267,503.18h23.16v46.87Z" transform="translate(-126.09 -127.93)"/><path class="cls-1" d="M509.85,550.05V503.18H533a49.26,49.26,0,0,0,25.53-6.83A51.43,51.43,0,0,0,577,477.93a49.22,49.22,0,0,0,6.84-25.53v-70q.56-10.87,4.74-16.88a59.42,59.42,0,0,1,11.16-11.71q7-5.71,15.91-14.65A195.73,195.73,0,0,0,600.11,325a53.92,53.92,0,0,1-11.44-12.28q-4.32-6.54-4.88-16.88v-70.3A49.27,49.27,0,0,0,577,200.05a51.43,51.43,0,0,0-18.41-18.42A49.36,49.36,0,0,0,533,174.8H509.85V127.93H533a94.27,94.27,0,0,1,49.25,13.25,99.91,99.91,0,0,1,35.29,35.43,94.47,94.47,0,0,1,13.11,49v68.63a17.3,17.3,0,0,0,7,13.25,73.54,73.54,0,0,0,14.92,8.65A67,67,0,0,1,667.49,325q6.42,5.16,6.42,14.09a16.42,16.42,0,0,1-6.42,13.67,70.21,70.21,0,0,1-14.93,8.79,69.88,69.88,0,0,0-14.92,8.79,18,18,0,0,0-7,13.67V452.4a94.47,94.47,0,0,1-13.11,49,100.07,100.07,0,0,1-35.29,35.43A94.27,94.27,0,0,1,533,550.05Z" transform="translate(-126.09 -127.93)"/><path class="cls-1" d="M190.13,632.21a16.66,16.66,0,0,1-6.92-1.44,17.29,17.29,0,0,1-5.59-4,18.73,18.73,0,0,1-3.72-5.93,19,19,0,0,1-1.34-7.16A18.52,18.52,0,0,1,174,606.3a18.27,18.27,0,0,1,9.55-9.72,16.53,16.53,0,0,1,6.67-1.38A16.72,16.72,0,0,1,197.8,597a17.89,17.89,0,0,1,6.35,5.51l-4.74,2.57a12.22,12.22,0,0,0-4.27-3.46,11.26,11.26,0,0,0-9.68-.17,12.49,12.49,0,0,0-3.93,2.81,13.55,13.55,0,0,0-2.69,4.2,13.88,13.88,0,0,0-1,5.24,13.68,13.68,0,0,0,1,5.13,13.05,13.05,0,0,0,2.65,4.19,12.45,12.45,0,0,0,3.93,2.82,11.33,11.33,0,0,0,4.78,1,10.75,10.75,0,0,0,3.62-.61,11.79,11.79,0,0,0,3.23-1.75,12.46,12.46,0,0,0,2.61-2.71,14.05,14.05,0,0,0,1.79-3.52h-7.58v-4.69h13.8a18.38,18.38,0,0,1-1.32,7.19,19,19,0,0,1-3.77,5.93,17.81,17.81,0,0,1-5.6,4A16.23,16.23,0,0,1,190.13,632.21Z" transform="translate(-126.09 -127.93)"/><path class="cls-1" d="M230.9,595.84h6.2l13,35.7h-5.61L242,624.76H226l-2.45,6.78h-5.64ZM228,619.46H240l-6-16.58Z" transform="translate(-126.09 -127.93)"/><path class="cls-1" d="M263.59,631.54v-5.3l21.73-25.09H263.59v-5.31h28.87v5.31l-21.73,25.09h21.73v5.3Z" transform="translate(-126.09 -127.93)"/><path class="cls-1" d="M307.76,631.54v-35.7h22.16v5.31H313.06v8.62h13.57v5.3H313.06v11.17h16.86v5.3Z" transform="translate(-126.09 -127.93)"/><path class="cls-1" d="M345.19,631.54v-35.7h5.74L367.3,622V595.84h5.3v35.7h-5.71l-16.42-26.11v26.11Z" transform="translate(-126.09 -127.93)"/><path class="cls-1" d="M415.21,595.84v5.31H403.84v30.39h-5.3V601.15H387.19v-5.31Z" transform="translate(-126.09 -127.93)"/><path class="cls-1" d="M430.26,631.54v-35.7h5.3v35.7Z" transform="translate(-126.09 -127.93)"/><path class="cls-1" d="M463,595.84h6.19l13,35.7h-5.61l-2.47-6.78h-16l-2.45,6.78H450ZM460,619.46H472.1l-6-16.58Z" transform="translate(-126.09 -127.93)"/><path class="cls-1" d="M498.19,632.21a2.7,2.7,0,0,1-2-.82,2.75,2.75,0,0,1-.8-2,2.71,2.71,0,0,1,.8-2,2.81,2.81,0,0,1,4.79,2,2.8,2.8,0,0,1-2.81,2.81Z" transform="translate(-126.09 -127.93)"/><path class="cls-1" d="M516.29,631.54v-35.7H528.1a17.52,17.52,0,0,1,6.94,1.39,18.1,18.1,0,0,1,9.52,9.54,17.95,17.95,0,0,1,0,13.85,17.93,17.93,0,0,1-3.84,5.68,17.74,17.74,0,0,1-5.68,3.85,17.35,17.35,0,0,1-6.94,1.39Zm5.31-5.3h6.5a12.09,12.09,0,0,0,4.86-1,13,13,0,0,0,4-2.7,12.49,12.49,0,0,0,2.72-4,12.71,12.71,0,0,0,0-9.74,12.8,12.8,0,0,0-6.72-6.7,12.09,12.09,0,0,0-4.86-1h-6.5Z" transform="translate(-126.09 -127.93)"/><path class="cls-1" d="M560.41,631.54v-35.7h22.16v5.31H565.71v8.62h13.57v5.3H565.71v11.17h16.86v5.3Z" transform="translate(-126.09 -127.93)"/><path class="cls-1" d="M608.07,631.54l-13-35.7h5.64l10.66,29.4,10.68-29.4h5.64l-13,35.7Z" transform="translate(-126.09 -127.93)"/><path class="cls-1" d="M177.88,679.56V660H181l9,14.34V660h2.91v19.6H189.8l-9-14.33v14.33Z" transform="translate(-126.09 -127.93)"/><path class="cls-1" d="M219.39,679.56V660h12.17v2.92h-9.25v4.73h7.44v2.91h-7.44v6.13h9.25v2.91Z" transform="translate(-126.09 -127.93)"/><path class="cls-1" d="M262.19,679.56l-5-19.6h3l3.67,14.38L267.51,660h2.65l3.67,14.38L277.48,660h3l-5,19.6h-3.35l-3.33-13-3.29,13Z" transform="translate(-126.09 -127.93)"/><path class="cls-1" d="M306.08,679.56V660h7a6,6,0,0,1,2.74.62,4.8,4.8,0,0,1,1.94,1.77,5.12,5.12,0,0,1,.72,2.77,4.82,4.82,0,0,1-.25,1.54,4.35,4.35,0,0,1-.71,1.33,2.55,2.55,0,0,1-1.12.81,3.17,3.17,0,0,1,1.49.8,4.37,4.37,0,0,1,.94,1.35,6.6,6.6,0,0,1,.5,1.6,8.76,8.76,0,0,1,.15,1.57,5.2,5.2,0,0,1-.76,2.8,5.45,5.45,0,0,1-2,1.94,5.67,5.67,0,0,1-2.79.7ZM309,667.72h3.74a2.94,2.94,0,0,0,2-.7,2.39,2.39,0,0,0,.82-1.92,2.32,2.32,0,0,0-.82-2,3.06,3.06,0,0,0-2-.65H309Zm0,9.32h4.6a3.16,3.16,0,0,0,1.63-.44,3.32,3.32,0,0,0,1.17-1.24,3.67,3.67,0,0,0,.43-1.79,3.27,3.27,0,0,0-.43-1.64,3.54,3.54,0,0,0-1.17-1.26,3,3,0,0,0-1.63-.47H309Z" transform="translate(-126.09 -127.93)"/><path class="cls-1" d="M345.87,679.56V660h2.91v19.6Z" transform="translate(-126.09 -127.93)"/><path class="cls-1" d="M375.49,679.56V660h12.17v2.92h-9.25v4.73h7.44v2.91h-7.44v6.13h9.25v2.91Z" transform="translate(-126.09 -127.93)"/><path class="cls-1" d="M451.56,679.93a9.06,9.06,0,0,1-3.74-.79,9.84,9.84,0,0,1-3.08-2.19,10.54,10.54,0,0,1,0-14.38,10,10,0,0,1,3.08-2.18,9.22,9.22,0,0,1,8.12.32,9.74,9.74,0,0,1,3.31,2.94L456.67,665a6.86,6.86,0,0,0-2.26-1.83,6.15,6.15,0,0,0-2.85-.69,6,6,0,0,0-2.62.58,7,7,0,0,0-2.15,1.56,7.71,7.71,0,0,0-1.44,7.92,7.46,7.46,0,0,0,1.45,2.31,6.89,6.89,0,0,0,2.15,1.57,6.07,6.07,0,0,0,2.61.57,6.18,6.18,0,0,0,2.87-.7,6.69,6.69,0,0,0,2.24-1.84l2.58,1.42a9.82,9.82,0,0,1-3.31,2.93A9,9,0,0,1,451.56,679.93Z" transform="translate(-126.09 -127.93)"/><path class="cls-1" d="M493.65,679.93a9,9,0,0,1-3.73-.79,9.88,9.88,0,0,1-3.09-2.19,10.51,10.51,0,0,1-2.08-3.25,10.59,10.59,0,0,1,0-7.88,10.46,10.46,0,0,1,2.08-3.24,9.88,9.88,0,0,1,3.09-2.19,8.89,8.89,0,0,1,3.73-.79,9,9,0,0,1,3.76.79,10,10,0,0,1,3.08,2.19,10.39,10.39,0,0,1,2.82,7.18,10.31,10.31,0,0,1-.75,3.94,10.48,10.48,0,0,1-2.07,3.25,10,10,0,0,1-3.08,2.19A9.15,9.15,0,0,1,493.65,679.93Zm0-2.91a6.09,6.09,0,0,0,2.62-.58,7,7,0,0,0,2.15-1.57,7.65,7.65,0,0,0,1.46-7.91,7.38,7.38,0,0,0-1.46-2.31,6.89,6.89,0,0,0-2.15-1.57,6.08,6.08,0,0,0-2.62-.57,5.93,5.93,0,0,0-2.61.58,6.77,6.77,0,0,0-2.15,1.57,7.49,7.49,0,0,0-1.46,2.31,7.8,7.8,0,0,0,0,5.6,7.49,7.49,0,0,0,1.46,2.31,6.77,6.77,0,0,0,2.15,1.57A6.07,6.07,0,0,0,493.65,677Z" transform="translate(-126.09 -127.93)"/><path class="cls-1" d="M529.14,679.56V660h6.49a9.49,9.49,0,0,1,3.8.77,9.72,9.72,0,0,1,3.12,2.11,9.94,9.94,0,0,1,2.11,3.12,9.88,9.88,0,0,1,0,7.6,9.87,9.87,0,0,1-2.11,3.13,9.72,9.72,0,0,1-3.12,2.11,9.48,9.48,0,0,1-3.8.76Zm2.91-2.91h3.58a6.72,6.72,0,0,0,2.66-.53,7.16,7.16,0,0,0,2.2-1.48,6.85,6.85,0,0,0,1.49-2.2,7,7,0,0,0,0-5.35,6.85,6.85,0,0,0-1.49-2.2,7,7,0,0,0-2.2-1.48,6.55,6.55,0,0,0-2.66-.53h-3.58Z" transform="translate(-126.09 -127.93)"/><path class="cls-1" d="M571,679.56V660h12.17v2.92h-9.25v4.73h7.44v2.91h-7.44v6.13h9.25v2.91Z" transform="translate(-126.09 -127.93)"/><path class="cls-1" d="M609.14,679.56V660h7.21a5.31,5.31,0,0,1,2.86.79,5.68,5.68,0,0,1,2,2.1,6.24,6.24,0,0,1,.23,5.46,5.59,5.59,0,0,1-1.43,1.93,5.52,5.52,0,0,1-2.1,1.15l4.74,8.17h-3.36l-4.6-7.91H612v7.91Zm2.9-10.82h4a2.88,2.88,0,0,0,1.52-.42,3.22,3.22,0,0,0,1.11-1.12,3.07,3.07,0,0,0,.41-1.58,3.14,3.14,0,0,0-.41-1.59,3.22,3.22,0,0,0-1.11-1.12,3,3,0,0,0-1.52-.41h-4Z" transform="translate(-126.09 -127.93)"/></svg>