<svg id="Layer_1" data-name="Layer 1" xmlns="http://www.w3.org/2000/svg" viewBox="0 0 547.81 422.13"><defs><style>.cls-1{fill:#2b2b2b;}</style></defs><title>logo-pure</title><path class="cls-1" d="M400.19,481.51a125.49,125.49,0,0,1-52.05-10.83,129.27,129.27,0,0,1-42-30.1,141.53,141.53,0,0,1-28-44.57,144.38,144.38,0,0,1-10.06-53.87q0-30.09,10.73-55.4a138.27,138.27,0,0,1,29.33-44,135.47,135.47,0,0,1,42.46-29,125.79,125.79,0,0,1,107.25,3.45q27.42,13.8,47.74,41.41L470,277.93a92.11,92.11,0,0,0-32.11-26.07A85.45,85.45,0,0,0,400.38,243a84.34,84.34,0,0,0-35.28,7.57,94.14,94.14,0,0,0-29.52,21.09,100.39,100.39,0,0,0-20.22,31.63,107.82,107.82,0,0,0-.19,77.92,98.74,98.74,0,0,0,19.93,31.53A93.85,93.85,0,0,0,364.63,434a85.42,85.42,0,0,0,35.94,7.66,81.14,81.14,0,0,0,27.22-4.6A88.29,88.29,0,0,0,452,423.9a93.47,93.47,0,0,0,19.65-20.41A103,103,0,0,0,485.1,377H428.17V341.76H531.88A137.8,137.8,0,0,1,522,395.82a142.83,142.83,0,0,1-28.37,44.57,133.19,133.19,0,0,1-42.08,30.19A122.44,122.44,0,0,1,400.19,481.51Z" transform="translate(-126.09 -127.93)"/><path class="cls-1" d="M267,550.05a94.24,94.24,0,0,1-49.25-13.25,100,100,0,0,1-35.29-35.43,94.47,94.47,0,0,1-13.11-49V384.05a16.91,16.91,0,0,0-7-13.67,78.77,78.77,0,0,0-15.06-8.79,71.37,71.37,0,0,1-14.79-8.79,16.42,16.42,0,0,1-6.42-13.67q0-8.92,6.42-14.09a68,68,0,0,1,14.79-8.93,83.39,83.39,0,0,0,15.06-8.65,16.26,16.26,0,0,0,7-13.25V225.58a94.47,94.47,0,0,1,13.11-49,99.83,99.83,0,0,1,35.29-35.43A94.24,94.24,0,0,1,267,127.93h23.16V174.8H267a48.61,48.61,0,0,0-25.39,6.83,52.8,52.8,0,0,0-18.41,18.42,48.46,48.46,0,0,0-7,25.53v70.3q-.57,10.33-4.88,16.88A55.47,55.47,0,0,1,200,325q-7,5.71-15.63,14.09,8.92,8.92,15.77,14.65a65.89,65.89,0,0,1,11.16,11.71q4.32,6,4.88,16.88v70a49.22,49.22,0,0,0,6.84,25.53,51.68,51.68,0,0,0,18.27,18.42A49,49,0,0,0,267,503.18h23.16v46.87Z" transform="translate(-126.09 -127.93)"/><path class="cls-1" d="M509.85,550.05V503.18H533a49.26,49.26,0,0,0,25.53-6.83A51.43,51.43,0,0,0,577,477.93a49.22,49.22,0,0,0,6.84-25.53v-70q.56-10.87,4.74-16.88a59.42,59.42,0,0,1,11.16-11.71q7-5.71,15.91-14.65A195.73,195.73,0,0,0,600.11,325a53.92,53.92,0,0,1-11.44-12.28q-4.32-6.54-4.88-16.88v-70.3A49.27,49.27,0,0,0,577,200.05a51.43,51.43,0,0,0-18.41-18.42A49.36,49.36,0,0,0,533,174.8H509.85V127.93H533a94.27,94.27,0,0,1,49.25,13.25,99.91,99.91,0,0,1,35.29,35.43,94.47,94.47,0,0,1,13.11,49v68.63a17.3,17.3,0,0,0,7,13.25,73.54,73.54,0,0,0,14.92,8.65A67,67,0,0,1,667.49,325q6.42,5.16,6.42,14.09a16.42,16.42,0,0,1-6.42,13.67,70.21,70.21,0,0,1-14.93,8.79,69.88,69.88,0,0,0-14.92,8.79,18,18,0,0,0-7,13.67V452.4a94.47,94.47,0,0,1-13.11,49,100.07,100.07,0,0,1-35.29,35.43A94.27,94.27,0,0,1,533,550.05Z" transform="translate(-126.09 -127.93)"/></svg>