<svg id="Layer_1" data-name="Layer 1" xmlns="http://www.w3.org/2000/svg" viewBox="0 0 520.4 320.36"><title>mail</title><path d="M331.51,401.87c-16,18-31.58,35.55-47.17,53.12q-27.55,31-55.1,62.08a10,10,0,0,0-2.24,3.25c-.36,1.1-.46,2.86.18,3.56a3.82,3.82,0,0,0,3.51.57,22.56,22.56,0,0,0,5.39-3.5Q295,471.33,353.73,421.56c3-2.54,4.93-2.65,8.07-.5,7.55,5.16,15.32,10,23.11,14.85,21.24,13.16,42.59,13.47,63.95.27,8.07-5,16.17-10,24-15.3,3.08-2.09,4.93-1.73,7.65.57q58.74,49.79,117.66,99.36c1.15,1,2.23,2.24,3.57,2.69,1.71.57,3.65.45,5.49.63-.26-1.8-.15-3.78-.87-5.38s-2.28-2.83-3.5-4.2q-49-55.12-98-110.23c-.65-.73-1.25-1.5-2.24-2.69,2.66-1.79,5.09-3.42,7.52-5.07q68.58-46.65,137.18-93.28c6.06-4.12,12.17-8.2,18.49-11.88,7.56-4.39,10.19-2.75,10.19,5.91q0,95.54,0,191.07c0,20.34-.88,40.73.29,61,.88,15.38-15.86,30.9-30.8,30.85-136.68-.4-273.37-.23-410-.23-15.84,0-31.67.08-47.51,0-14.17-.1-23.66-7.78-30.21-19.59a17.48,17.48,0,0,1-1.72-8.17q-.13-127.29-.06-254.59c0-8.51,3.47-10.78,10.92-6.44,9.05,5.28,17.76,11.16,26.46,17Q261.26,354,329.11,400C329.78,400.43,330.39,401,331.51,401.87Z" transform="translate(-155.92 -259.88)"/><path d="M417.49,259.88q119,0,238,0a42.2,42.2,0,0,1,7.46.49c8.65,1.59,11.35,8.37,5.62,15.2a37,37,0,0,1-10.53,8.23q-92.28,50.34-184.7,100.43c-8.63,4.69-17.33,9.24-25.88,14.08-20.51,11.62-40.94,11-61.35-.12Q303,353,219.89,307.8c-14.76-8-29.55-16-44.21-24.25-5.19-2.91-10.49-5.95-12.16-12.51-1.5-5.93.11-9,6-10.23a45.85,45.85,0,0,1,8.9-.9Q298,259.85,417.49,259.88Z" transform="translate(-155.92 -259.88)"/></svg>